<mxfile host="Electron" modified="2024-02-27T11:44:05.888Z" agent="Mozilla/5.0 (Macintosh; Intel Mac OS X 10_15_7) AppleWebKit/537.36 (KHTML, like Gecko) draw.io/23.1.5 Chrome/120.0.6099.109 Electron/28.1.0 Safari/537.36" etag="vDHKfmJN8aODt2hLl8Mp" version="23.1.5" type="device">
  <diagram id="C5RBs43oDa-KdzZeNtuy" name="Page-1">
    <mxGraphModel dx="763" dy="539" grid="1" gridSize="10" guides="1" tooltips="1" connect="0" arrows="1" fold="1" page="1" pageScale="1" pageWidth="413" pageHeight="291" math="0" shadow="0">
      <root>
        <mxCell id="WIyWlLk6GJQsqaUBKTNV-0" />
        <mxCell id="WIyWlLk6GJQsqaUBKTNV-1" parent="WIyWlLk6GJQsqaUBKTNV-0" />
        <mxCell id="WIyWlLk6GJQsqaUBKTNV-2" value="" style="rounded=0;html=1;jettySize=auto;orthogonalLoop=1;fontSize=11;endArrow=block;endFill=0;endSize=8;strokeWidth=1;shadow=0;labelBackgroundColor=none;edgeStyle=orthogonalEdgeStyle;entryX=0.5;entryY=0;entryDx=0;entryDy=0;" parent="WIyWlLk6GJQsqaUBKTNV-1" source="WIyWlLk6GJQsqaUBKTNV-3" target="fCpWRSTJHVSK4sW-MZha-0" edge="1">
          <mxGeometry relative="1" as="geometry">
            <mxPoint x="142" y="116" as="targetPoint" />
          </mxGeometry>
        </mxCell>
        <mxCell id="WIyWlLk6GJQsqaUBKTNV-3" value="Transects and banks" style="rounded=1;whiteSpace=wrap;html=1;fontSize=12;glass=0;strokeWidth=1;shadow=0;" parent="WIyWlLk6GJQsqaUBKTNV-1" vertex="1">
          <mxGeometry x="82" y="26" width="120" height="40" as="geometry" />
        </mxCell>
        <mxCell id="fCpWRSTJHVSK4sW-MZha-2" value="" style="edgeStyle=orthogonalEdgeStyle;rounded=0;orthogonalLoop=1;jettySize=auto;html=1;" parent="WIyWlLk6GJQsqaUBKTNV-1" source="fCpWRSTJHVSK4sW-MZha-0" target="fCpWRSTJHVSK4sW-MZha-1" edge="1">
          <mxGeometry relative="1" as="geometry" />
        </mxCell>
        <mxCell id="fCpWRSTJHVSK4sW-MZha-0" value="Lines intersections" style="rounded=1;whiteSpace=wrap;html=1;fontSize=12;glass=0;strokeWidth=1;shadow=0;" parent="WIyWlLk6GJQsqaUBKTNV-1" vertex="1">
          <mxGeometry x="82" y="124" width="120" height="40" as="geometry" />
        </mxCell>
        <mxCell id="fCpWRSTJHVSK4sW-MZha-1" value="Difference evaluation" style="whiteSpace=wrap;html=1;rounded=1;glass=0;strokeWidth=1;shadow=0;" parent="WIyWlLk6GJQsqaUBKTNV-1" vertex="1">
          <mxGeometry x="82" y="211" width="120" height="49" as="geometry" />
        </mxCell>
        <mxCell id="HR6z3A-rT7DozFi2OHON-4" value="" style="group" parent="WIyWlLk6GJQsqaUBKTNV-1" vertex="1" connectable="0">
          <mxGeometry x="231" y="2" width="139" height="89" as="geometry" />
        </mxCell>
        <mxCell id="fCpWRSTJHVSK4sW-MZha-10" value="" style="curved=1;endArrow=none;html=1;rounded=0;endFill=0;" parent="HR6z3A-rT7DozFi2OHON-4" edge="1">
          <mxGeometry width="50" height="50" relative="1" as="geometry">
            <mxPoint x="12" y="69" as="sourcePoint" />
            <mxPoint x="90" y="8" as="targetPoint" />
            <Array as="points">
              <mxPoint x="62" y="69" />
              <mxPoint x="12" y="19" />
            </Array>
          </mxGeometry>
        </mxCell>
        <mxCell id="fCpWRSTJHVSK4sW-MZha-15" value="" style="endArrow=none;html=1;rounded=0;strokeColor=#FF0000;" parent="HR6z3A-rT7DozFi2OHON-4" edge="1">
          <mxGeometry width="50" height="50" relative="1" as="geometry">
            <mxPoint x="16" y="58" as="sourcePoint" />
            <mxPoint x="15.639999999999986" y="89" as="targetPoint" />
          </mxGeometry>
        </mxCell>
        <mxCell id="fCpWRSTJHVSK4sW-MZha-16" value="" style="endArrow=none;html=1;rounded=0;strokeColor=#FF0000;" parent="HR6z3A-rT7DozFi2OHON-4" edge="1">
          <mxGeometry width="50" height="50" relative="1" as="geometry">
            <mxPoint x="33.389999999999986" y="57.5" as="sourcePoint" />
            <mxPoint x="79" y="59" as="targetPoint" />
          </mxGeometry>
        </mxCell>
        <mxCell id="fCpWRSTJHVSK4sW-MZha-17" value="" style="endArrow=none;html=1;rounded=0;strokeColor=#FF0000;" parent="HR6z3A-rT7DozFi2OHON-4" edge="1">
          <mxGeometry width="50" height="50" relative="1" as="geometry">
            <mxPoint x="2" y="8" as="sourcePoint" />
            <mxPoint x="72" y="48" as="targetPoint" />
          </mxGeometry>
        </mxCell>
        <mxCell id="fCpWRSTJHVSK4sW-MZha-18" value="" style="endArrow=none;html=1;rounded=0;strokeColor=#FF0000;" parent="HR6z3A-rT7DozFi2OHON-4" edge="1">
          <mxGeometry width="50" height="50" relative="1" as="geometry">
            <mxPoint x="85.75" as="sourcePoint" />
            <mxPoint x="86" y="49" as="targetPoint" />
          </mxGeometry>
        </mxCell>
        <mxCell id="fCpWRSTJHVSK4sW-MZha-26" value="" style="curved=1;endArrow=none;html=1;rounded=0;endFill=0;" parent="HR6z3A-rT7DozFi2OHON-4" edge="1">
          <mxGeometry width="50" height="50" relative="1" as="geometry">
            <mxPoint x="9" y="79" as="sourcePoint" />
            <mxPoint x="99" y="28" as="targetPoint" />
            <Array as="points">
              <mxPoint x="99" y="79" />
              <mxPoint x="31" y="29" />
            </Array>
          </mxGeometry>
        </mxCell>
        <mxCell id="HR6z3A-rT7DozFi2OHON-0" value="" style="curved=1;endArrow=none;html=1;rounded=0;endFill=0;strokeColor=#009900;fontColor=#009900;" parent="HR6z3A-rT7DozFi2OHON-4" edge="1">
          <mxGeometry width="50" height="50" relative="1" as="geometry">
            <mxPoint y="67" as="sourcePoint" />
            <mxPoint x="99" y="8" as="targetPoint" />
            <Array as="points">
              <mxPoint x="50" y="67" />
              <mxPoint x="35" y="48" />
              <mxPoint y="17" />
              <mxPoint x="35" y="8" />
            </Array>
          </mxGeometry>
        </mxCell>
        <mxCell id="HR6z3A-rT7DozFi2OHON-1" value="" style="curved=1;endArrow=none;html=1;rounded=0;endFill=0;strokeColor=#009900;fontColor=#009900;" parent="HR6z3A-rT7DozFi2OHON-4" edge="1">
          <mxGeometry width="50" height="50" relative="1" as="geometry">
            <mxPoint x="11" y="85" as="sourcePoint" />
            <mxPoint x="121" y="35" as="targetPoint" />
            <Array as="points">
              <mxPoint x="91" y="86" />
              <mxPoint x="79" y="58" />
              <mxPoint x="43" y="36" />
            </Array>
          </mxGeometry>
        </mxCell>
        <mxCell id="HR6z3A-rT7DozFi2OHON-2" value="&lt;font face=&quot;Garamond&quot;&gt;t&lt;/font&gt;&lt;sub&gt;&lt;font style=&quot;font-size: 7px;&quot;&gt;1&lt;/font&gt;&lt;/sub&gt;" style="text;html=1;align=center;verticalAlign=middle;whiteSpace=wrap;rounded=0;" parent="HR6z3A-rT7DozFi2OHON-4" vertex="1">
          <mxGeometry x="99" y="18" width="20" height="19" as="geometry" />
        </mxCell>
        <mxCell id="HR6z3A-rT7DozFi2OHON-3" value="&lt;font face=&quot;Garamond&quot;&gt;t&lt;/font&gt;&lt;sub&gt;&lt;font style=&quot;font-size: 7px;&quot;&gt;2&lt;/font&gt;&lt;/sub&gt;" style="text;html=1;align=center;verticalAlign=middle;whiteSpace=wrap;rounded=0;fontColor=#009900;strokeColor=none;" parent="HR6z3A-rT7DozFi2OHON-4" vertex="1">
          <mxGeometry x="119" y="24" width="20" height="19" as="geometry" />
        </mxCell>
        <mxCell id="HR6z3A-rT7DozFi2OHON-33" value="" style="group" parent="WIyWlLk6GJQsqaUBKTNV-1" vertex="1" connectable="0">
          <mxGeometry x="230" y="100" width="139" height="89" as="geometry" />
        </mxCell>
        <mxCell id="HR6z3A-rT7DozFi2OHON-5" value="" style="group" parent="HR6z3A-rT7DozFi2OHON-33" vertex="1" connectable="0">
          <mxGeometry width="139" height="89" as="geometry" />
        </mxCell>
        <mxCell id="HR6z3A-rT7DozFi2OHON-6" value="" style="curved=1;endArrow=none;html=1;rounded=0;endFill=0;" parent="HR6z3A-rT7DozFi2OHON-5" edge="1">
          <mxGeometry width="50" height="50" relative="1" as="geometry">
            <mxPoint x="12" y="69" as="sourcePoint" />
            <mxPoint x="90" y="8" as="targetPoint" />
            <Array as="points">
              <mxPoint x="62" y="69" />
              <mxPoint x="12" y="19" />
            </Array>
          </mxGeometry>
        </mxCell>
        <mxCell id="HR6z3A-rT7DozFi2OHON-7" value="" style="endArrow=none;html=1;rounded=0;strokeColor=#FF6363;" parent="HR6z3A-rT7DozFi2OHON-5" edge="1">
          <mxGeometry width="50" height="50" relative="1" as="geometry">
            <mxPoint x="16" y="58" as="sourcePoint" />
            <mxPoint x="15.639999999999986" y="89" as="targetPoint" />
          </mxGeometry>
        </mxCell>
        <mxCell id="HR6z3A-rT7DozFi2OHON-8" value="" style="endArrow=none;html=1;rounded=0;strokeColor=#FF6363;" parent="HR6z3A-rT7DozFi2OHON-5" edge="1">
          <mxGeometry width="50" height="50" relative="1" as="geometry">
            <mxPoint x="33.389999999999986" y="57.5" as="sourcePoint" />
            <mxPoint x="79" y="59" as="targetPoint" />
          </mxGeometry>
        </mxCell>
        <mxCell id="HR6z3A-rT7DozFi2OHON-9" value="" style="endArrow=none;html=1;rounded=0;strokeColor=#FF6363;" parent="HR6z3A-rT7DozFi2OHON-5" edge="1">
          <mxGeometry width="50" height="50" relative="1" as="geometry">
            <mxPoint x="2" y="8" as="sourcePoint" />
            <mxPoint x="72" y="48" as="targetPoint" />
          </mxGeometry>
        </mxCell>
        <mxCell id="HR6z3A-rT7DozFi2OHON-10" value="" style="endArrow=none;html=1;rounded=0;strokeColor=#FF6363;" parent="HR6z3A-rT7DozFi2OHON-5" edge="1">
          <mxGeometry width="50" height="50" relative="1" as="geometry">
            <mxPoint x="85.75" as="sourcePoint" />
            <mxPoint x="86" y="49" as="targetPoint" />
          </mxGeometry>
        </mxCell>
        <mxCell id="HR6z3A-rT7DozFi2OHON-11" value="" style="curved=1;endArrow=none;html=1;rounded=0;endFill=0;" parent="HR6z3A-rT7DozFi2OHON-5" edge="1">
          <mxGeometry width="50" height="50" relative="1" as="geometry">
            <mxPoint x="9" y="79" as="sourcePoint" />
            <mxPoint x="99" y="28" as="targetPoint" />
            <Array as="points">
              <mxPoint x="99" y="79" />
              <mxPoint x="31" y="29" />
            </Array>
          </mxGeometry>
        </mxCell>
        <mxCell id="HR6z3A-rT7DozFi2OHON-12" value="" style="curved=1;endArrow=none;html=1;rounded=0;endFill=0;strokeColor=#009900;fontColor=#009900;" parent="HR6z3A-rT7DozFi2OHON-5" edge="1">
          <mxGeometry width="50" height="50" relative="1" as="geometry">
            <mxPoint y="67" as="sourcePoint" />
            <mxPoint x="99" y="8" as="targetPoint" />
            <Array as="points">
              <mxPoint x="50" y="67" />
              <mxPoint x="35" y="48" />
              <mxPoint y="17" />
              <mxPoint x="35" y="8" />
            </Array>
          </mxGeometry>
        </mxCell>
        <mxCell id="HR6z3A-rT7DozFi2OHON-13" value="" style="curved=1;endArrow=none;html=1;rounded=0;endFill=0;strokeColor=#009900;fontColor=#009900;" parent="HR6z3A-rT7DozFi2OHON-5" edge="1">
          <mxGeometry width="50" height="50" relative="1" as="geometry">
            <mxPoint x="11" y="85" as="sourcePoint" />
            <mxPoint x="121" y="35" as="targetPoint" />
            <Array as="points">
              <mxPoint x="91" y="86" />
              <mxPoint x="79" y="58" />
              <mxPoint x="43" y="36" />
            </Array>
          </mxGeometry>
        </mxCell>
        <mxCell id="HR6z3A-rT7DozFi2OHON-14" value="&lt;font face=&quot;Garamond&quot;&gt;t&lt;/font&gt;&lt;sub&gt;&lt;font style=&quot;font-size: 7px;&quot;&gt;1&lt;/font&gt;&lt;/sub&gt;" style="text;html=1;align=center;verticalAlign=middle;whiteSpace=wrap;rounded=0;" parent="HR6z3A-rT7DozFi2OHON-5" vertex="1">
          <mxGeometry x="99" y="18" width="20" height="19" as="geometry" />
        </mxCell>
        <mxCell id="HR6z3A-rT7DozFi2OHON-15" value="&lt;font face=&quot;Garamond&quot;&gt;t&lt;/font&gt;&lt;sub&gt;&lt;font style=&quot;font-size: 7px;&quot;&gt;2&lt;/font&gt;&lt;/sub&gt;" style="text;html=1;align=center;verticalAlign=middle;whiteSpace=wrap;rounded=0;fontColor=#009900;strokeColor=none;" parent="HR6z3A-rT7DozFi2OHON-5" vertex="1">
          <mxGeometry x="119" y="24" width="20" height="19" as="geometry" />
        </mxCell>
        <mxCell id="HR6z3A-rT7DozFi2OHON-16" value="" style="ellipse;whiteSpace=wrap;html=1;fillColor=none;fontColor=#ffffff;strokeColor=#ff0000;" parent="HR6z3A-rT7DozFi2OHON-33" vertex="1">
          <mxGeometry x="10" y="11" width="5" height="5" as="geometry" />
        </mxCell>
        <mxCell id="HR6z3A-rT7DozFi2OHON-19" value="" style="ellipse;whiteSpace=wrap;html=1;fillColor=none;fontColor=#ffffff;strokeColor=#ff0000;" parent="HR6z3A-rT7DozFi2OHON-33" vertex="1">
          <mxGeometry x="31" y="23" width="5" height="5" as="geometry" />
        </mxCell>
        <mxCell id="HR6z3A-rT7DozFi2OHON-20" value="" style="ellipse;whiteSpace=wrap;html=1;fillColor=none;fontColor=#ffffff;strokeColor=#ff0000;" parent="HR6z3A-rT7DozFi2OHON-33" vertex="1">
          <mxGeometry x="52" y="35" width="5" height="5" as="geometry" />
        </mxCell>
        <mxCell id="HR6z3A-rT7DozFi2OHON-21" value="" style="ellipse;whiteSpace=wrap;html=1;fillColor=none;fontColor=#ffffff;strokeColor=#ff0000;" parent="HR6z3A-rT7DozFi2OHON-33" vertex="1">
          <mxGeometry x="57" y="38" width="5" height="5" as="geometry" />
        </mxCell>
        <mxCell id="HR6z3A-rT7DozFi2OHON-22" value="" style="ellipse;whiteSpace=wrap;html=1;fillColor=none;fontColor=#ffffff;strokeColor=#ff0000;" parent="HR6z3A-rT7DozFi2OHON-33" vertex="1">
          <mxGeometry x="68" y="56" width="5" height="5" as="geometry" />
        </mxCell>
        <mxCell id="HR6z3A-rT7DozFi2OHON-23" value="" style="ellipse;whiteSpace=wrap;html=1;fillColor=none;fontColor=#ffffff;strokeColor=#ff0000;" parent="HR6z3A-rT7DozFi2OHON-33" vertex="1">
          <mxGeometry x="74" y="56" width="5" height="5" as="geometry" />
        </mxCell>
        <mxCell id="HR6z3A-rT7DozFi2OHON-24" value="" style="ellipse;whiteSpace=wrap;html=1;fillColor=none;fontColor=#ffffff;strokeColor=#ff0000;" parent="HR6z3A-rT7DozFi2OHON-33" vertex="1">
          <mxGeometry x="43" y="55" width="5" height="5" as="geometry" />
        </mxCell>
        <mxCell id="HR6z3A-rT7DozFi2OHON-25" value="" style="ellipse;whiteSpace=wrap;html=1;fillColor=none;fontColor=#ffffff;strokeColor=#ff0000;" parent="HR6z3A-rT7DozFi2OHON-33" vertex="1">
          <mxGeometry x="40" y="55" width="5" height="5" as="geometry" />
        </mxCell>
        <mxCell id="HR6z3A-rT7DozFi2OHON-26" value="" style="ellipse;whiteSpace=wrap;html=1;fillColor=none;fontColor=#ffffff;strokeColor=#ff0000;" parent="HR6z3A-rT7DozFi2OHON-33" vertex="1">
          <mxGeometry x="14" y="67" width="5" height="5" as="geometry" />
        </mxCell>
        <mxCell id="HR6z3A-rT7DozFi2OHON-27" value="" style="ellipse;whiteSpace=wrap;html=1;fillColor=none;fontColor=#ffffff;strokeColor=#ff0000;" parent="HR6z3A-rT7DozFi2OHON-33" vertex="1">
          <mxGeometry x="14" y="63" width="5" height="5" as="geometry" />
        </mxCell>
        <mxCell id="HR6z3A-rT7DozFi2OHON-28" value="" style="ellipse;whiteSpace=wrap;html=1;fillColor=none;fontColor=#ffffff;strokeColor=#ff0000;" parent="HR6z3A-rT7DozFi2OHON-33" vertex="1">
          <mxGeometry x="14" y="77" width="5" height="5" as="geometry" />
        </mxCell>
        <mxCell id="HR6z3A-rT7DozFi2OHON-29" value="" style="ellipse;whiteSpace=wrap;html=1;fillColor=none;fontColor=#ffffff;strokeColor=#ff0000;" parent="HR6z3A-rT7DozFi2OHON-33" vertex="1">
          <mxGeometry x="14" y="83" width="5" height="5" as="geometry" />
        </mxCell>
        <mxCell id="HR6z3A-rT7DozFi2OHON-30" value="" style="ellipse;whiteSpace=wrap;html=1;fillColor=none;fontColor=#ffffff;strokeColor=#ff0000;" parent="HR6z3A-rT7DozFi2OHON-33" vertex="1">
          <mxGeometry x="83" y="6" width="5" height="5" as="geometry" />
        </mxCell>
        <mxCell id="HR6z3A-rT7DozFi2OHON-31" value="" style="ellipse;whiteSpace=wrap;html=1;fillColor=none;fontColor=#ffffff;strokeColor=#ff0000;" parent="HR6z3A-rT7DozFi2OHON-33" vertex="1">
          <mxGeometry x="83" y="26" width="5" height="5" as="geometry" />
        </mxCell>
        <mxCell id="HR6z3A-rT7DozFi2OHON-32" value="" style="ellipse;whiteSpace=wrap;html=1;fillColor=none;fontColor=#ffffff;strokeColor=#ff0000;" parent="HR6z3A-rT7DozFi2OHON-33" vertex="1">
          <mxGeometry x="83" y="34" width="5" height="5" as="geometry" />
        </mxCell>
        <mxCell id="HR6z3A-rT7DozFi2OHON-66" value="" style="group" parent="WIyWlLk6GJQsqaUBKTNV-1" vertex="1" connectable="0">
          <mxGeometry x="238" y="205" width="86" height="67.5" as="geometry" />
        </mxCell>
        <mxCell id="HR6z3A-rT7DozFi2OHON-61" value="" style="curved=1;endArrow=none;html=1;rounded=0;endFill=0;strokeColor=#009900;fontColor=#009900;" parent="HR6z3A-rT7DozFi2OHON-66" edge="1">
          <mxGeometry width="50" height="50" relative="1" as="geometry">
            <mxPoint x="-8.5" y="47.5" as="sourcePoint" />
            <mxPoint x="41.5" y="-2.5" as="targetPoint" />
            <Array as="points">
              <mxPoint x="21.5" y="37.5" />
              <mxPoint x="11.5" y="7.5" />
            </Array>
          </mxGeometry>
        </mxCell>
        <mxCell id="HR6z3A-rT7DozFi2OHON-62" value="" style="curved=1;endArrow=none;html=1;rounded=0;endFill=0;" parent="HR6z3A-rT7DozFi2OHON-66" edge="1">
          <mxGeometry width="50" height="50" relative="1" as="geometry">
            <mxPoint x="1.5" y="57.5" as="sourcePoint" />
            <mxPoint x="51.5" y="7.5" as="targetPoint" />
            <Array as="points">
              <mxPoint x="31.5" y="47.5" />
              <mxPoint x="21.5" y="27.5" />
              <mxPoint x="21.5" y="17.5" />
            </Array>
          </mxGeometry>
        </mxCell>
        <mxCell id="HR6z3A-rT7DozFi2OHON-63" value="" style="curved=1;endArrow=none;html=1;rounded=0;endFill=0;" parent="HR6z3A-rT7DozFi2OHON-66" edge="1">
          <mxGeometry width="50" height="50" relative="1" as="geometry">
            <mxPoint x="11.5" y="67.5" as="sourcePoint" />
            <mxPoint x="61.5" y="17.5" as="targetPoint" />
            <Array as="points">
              <mxPoint x="41.5" y="57.5" />
              <mxPoint x="41.5" y="47.5" />
              <mxPoint x="41.5" y="27.5" />
            </Array>
          </mxGeometry>
        </mxCell>
        <mxCell id="HR6z3A-rT7DozFi2OHON-64" value="" style="curved=1;endArrow=none;html=1;rounded=0;endFill=0;strokeColor=#009900;fontColor=#009900;" parent="HR6z3A-rT7DozFi2OHON-66" edge="1">
          <mxGeometry width="50" height="50" relative="1" as="geometry">
            <mxPoint x="21.5" y="77.5" as="sourcePoint" />
            <mxPoint x="71.5" y="27.5" as="targetPoint" />
            <Array as="points">
              <mxPoint x="51.5" y="67.5" />
              <mxPoint x="41.5" y="37.5" />
            </Array>
          </mxGeometry>
        </mxCell>
        <mxCell id="HR6z3A-rT7DozFi2OHON-46" value="" style="ellipse;whiteSpace=wrap;html=1;fillColor=none;fontColor=#ffffff;strokeColor=#ff0000;" parent="HR6z3A-rT7DozFi2OHON-66" vertex="1">
          <mxGeometry x="13" y="19" width="5" height="5" as="geometry" />
        </mxCell>
        <mxCell id="HR6z3A-rT7DozFi2OHON-47" value="" style="ellipse;whiteSpace=wrap;html=1;fillColor=none;fontColor=#ffffff;strokeColor=#ff0000;" parent="HR6z3A-rT7DozFi2OHON-66" vertex="1">
          <mxGeometry x="20" y="23" width="5" height="5" as="geometry" />
        </mxCell>
        <mxCell id="HR6z3A-rT7DozFi2OHON-48" value="" style="ellipse;whiteSpace=wrap;html=1;fillColor=none;fontColor=#ffffff;strokeColor=#ff0000;" parent="HR6z3A-rT7DozFi2OHON-66" vertex="1">
          <mxGeometry x="39" y="34" width="5" height="5" as="geometry" />
        </mxCell>
        <mxCell id="HR6z3A-rT7DozFi2OHON-49" value="" style="ellipse;whiteSpace=wrap;html=1;fillColor=none;fontColor=#ffffff;strokeColor=#ff0000;" parent="HR6z3A-rT7DozFi2OHON-66" vertex="1">
          <mxGeometry x="46" y="38" width="5" height="5" as="geometry" />
        </mxCell>
        <mxCell id="HR6z3A-rT7DozFi2OHON-39" value="" style="endArrow=none;html=1;rounded=0;strokeColor=#FF6363;" parent="HR6z3A-rT7DozFi2OHON-66" edge="1">
          <mxGeometry width="50" height="50" relative="1" as="geometry">
            <mxPoint y="13" as="sourcePoint" />
            <mxPoint x="70" y="53" as="targetPoint" />
          </mxGeometry>
        </mxCell>
        <mxCell id="HR6z3A-rT7DozFi2OHON-44" value="&lt;font face=&quot;Garamond&quot;&gt;t&lt;/font&gt;&lt;sub&gt;&lt;font style=&quot;font-size: 7px;&quot;&gt;1&lt;/font&gt;&lt;/sub&gt;" style="text;html=1;align=center;verticalAlign=middle;whiteSpace=wrap;rounded=0;" parent="HR6z3A-rT7DozFi2OHON-66" vertex="1">
          <mxGeometry x="45" y="-8" width="20" height="19" as="geometry" />
        </mxCell>
        <mxCell id="HR6z3A-rT7DozFi2OHON-45" value="&lt;font face=&quot;Garamond&quot;&gt;t&lt;/font&gt;&lt;sub&gt;&lt;font style=&quot;font-size: 7px;&quot;&gt;2&lt;/font&gt;&lt;/sub&gt;" style="text;html=1;align=center;verticalAlign=middle;whiteSpace=wrap;rounded=0;fontColor=#009900;strokeColor=none;" parent="HR6z3A-rT7DozFi2OHON-66" vertex="1">
          <mxGeometry x="66" y="17" width="20" height="19" as="geometry" />
        </mxCell>
        <mxCell id="HR6z3A-rT7DozFi2OHON-70" value="" style="group" parent="HR6z3A-rT7DozFi2OHON-66" vertex="1" connectable="0">
          <mxGeometry x="41" y="4" width="29" height="36" as="geometry" />
        </mxCell>
        <mxCell id="HR6z3A-rT7DozFi2OHON-67" value="" style="endArrow=baseDash;html=1;rounded=0;startArrow=baseDash;startFill=0;endFill=0;strokeWidth=0.5;strokeColor=#808080;bendable=0;noJump=1;orthogonal=0;" parent="HR6z3A-rT7DozFi2OHON-70" edge="1">
          <mxGeometry width="50" height="50" relative="1" as="geometry">
            <mxPoint x="22" as="sourcePoint" />
            <mxPoint x="29" y="5" as="targetPoint" />
          </mxGeometry>
        </mxCell>
        <mxCell id="HR6z3A-rT7DozFi2OHON-68" value="" style="endArrow=none;dashed=1;html=1;rounded=0;strokeWidth=0.5;strokeColor=#808080;" parent="HR6z3A-rT7DozFi2OHON-70" edge="1">
          <mxGeometry width="50" height="50" relative="1" as="geometry">
            <mxPoint y="33" as="sourcePoint" />
            <mxPoint x="20" y="3" as="targetPoint" />
          </mxGeometry>
        </mxCell>
        <mxCell id="HR6z3A-rT7DozFi2OHON-69" value="" style="endArrow=none;dashed=1;html=1;rounded=0;strokeWidth=0.5;strokeColor=#808080;" parent="HR6z3A-rT7DozFi2OHON-70" edge="1">
          <mxGeometry width="50" height="50" relative="1" as="geometry">
            <mxPoint x="8" y="36" as="sourcePoint" />
            <mxPoint x="28" y="6" as="targetPoint" />
          </mxGeometry>
        </mxCell>
        <mxCell id="HR6z3A-rT7DozFi2OHON-71" value="&lt;font face=&quot;Garamond&quot;&gt;Δ&lt;/font&gt;" style="text;html=1;align=center;verticalAlign=middle;whiteSpace=wrap;rounded=0;" parent="WIyWlLk6GJQsqaUBKTNV-1" vertex="1">
          <mxGeometry x="292" y="193" width="38" height="19" as="geometry" />
        </mxCell>
      </root>
    </mxGraphModel>
  </diagram>
</mxfile>
